<?xml version="1.0" encoding="utf-8"?>
<!-- Generator: Adobe Illustrator 23.0.4, SVG Export Plug-In . SVG Version: 6.00 Build 0)  -->
<svg version="1.1" id="Layer_1" xmlns="http://www.w3.org/2000/svg" xmlns:xlink="http://www.w3.org/1999/xlink" x="0px" y="0px"
	 viewBox="0 0 300 300" style="enable-background:new 0 0 300 300;" xml:space="preserve">
<style type="text/css">
	.st0{fill:#737373;}
</style>
<g id="_x37_MBVo1.tif">
	<g>
		<path class="st0" d="M214.82,29.86c-60.23,0-120.17,0-180.22,0c0,80.08,0,160.12,0,240.24c60.01,0,119.98,0,180.11,0
			c0.03-0.56,0.07-1.1,0.07-1.63c0-8.71-0.01-17.42,0.03-26.13c0-0.8,0.18-1.69,0.56-2.38c6.19-11.16,12.42-22.29,18.64-33.43
			c0.17-0.3,0.38-0.58,0.75-1.14c0.04,0.71,0.07,1.1,0.07,1.49c0,21.33,0.02,42.67-0.01,64c-0.01,6.75-2.42,12.38-8.19,16.24
			c-3.23,2.16-6.87,3.06-10.72,3.12c-3.03,0.05-6.06,0.01-9.08,0.01c-57.48,0-114.96,0-172.44,0.01c-3.84,0-7.53-0.62-10.88-2.58
			c-5.44-3.18-8.22-8.07-8.91-14.23c-0.13-1.2-0.15-2.42-0.15-3.63c-0.01-79.42,0-158.84-0.02-238.25c0-5.48,1.1-10.55,4.6-14.9
			c3.58-4.43,8.3-6.63,13.95-6.89c0.6-0.03,1.21-0.03,1.82-0.03c59.85,0,119.71,0.01,179.56-0.02c5.28,0,10.06,1.27,13.98,4.95
			c4.52,4.24,6.45,9.59,6.46,15.68c0.03,14.95,0.01,29.9,0.01,44.86c0,9.18,0.01,18.35-0.03,27.53c0,0.75-0.21,1.58-0.57,2.23
			c-6.14,11.08-12.32,22.13-18.5,33.19c-0.2,0.35-0.44,0.68-0.92,0.97C214.82,102.76,214.82,66.38,214.82,29.86z"/>
		<path class="st0" d="M252.26,102.91c6.77,3.89,13.37,7.69,20.07,11.53c-2.03,3.51-3.97,6.89-5.93,10.27
			c-21.55,37.28-43.09,74.57-64.66,111.84c-0.36,0.61-0.88,1.22-1.48,1.59c-6.15,3.77-12.33,7.49-18.51,11.23
			c-0.34,0.21-0.7,0.37-1.22,0.64c-0.03-0.63-0.08-1.08-0.08-1.53c0-7.03-0.02-14.06,0.03-21.09c0.01-0.79,0.24-1.67,0.63-2.35
			c23.41-40.24,46.84-80.47,70.27-120.7C251.64,103.9,251.91,103.48,252.26,102.91z"/>
		<path class="st0" d="M51.77,109.96c0-4.83,0-9.47,0-14.22c48.59,0,97.12,0,145.75,0c0.04,0.34,0.12,0.65,0.12,0.96
			c0.01,4-0.02,8.01,0.03,12.01c0.01,0.98-0.31,1.37-1.28,1.25c-0.28-0.03-0.56,0-0.84,0c-47.26,0-94.52,0-141.78,0
			C53.12,109.96,52.48,109.96,51.77,109.96z"/>
		<path class="st0" d="M197.58,161.55c0,4.77,0,9.37,0,14.08c-48.59,0-97.12,0-145.77,0c0-4.66,0-9.32,0-14.08
			C100.38,161.55,148.92,161.55,197.58,161.55z"/>
		<path class="st0" d="M163.24,61.29c0,4.88,0,9.48,0,14.2c-37.12,0-74.21,0-111.45,0c-0.03-0.47-0.09-0.96-0.09-1.45
			c-0.01-3.73,0.06-7.45-0.04-11.18c-0.04-1.35,0.46-1.6,1.67-1.6c29.15,0.03,58.3,0.02,87.45,0.02c6.89,0,13.78,0,20.68,0
			C162.01,61.29,162.56,61.29,163.24,61.29z"/>
		<path class="st0" d="M51.77,141.27c0-4.69,0-9.32,0-14.06c37.14,0,74.23,0,111.42,0c0,4.66,0,9.3,0,14.06
			C126.12,141.27,89.04,141.27,51.77,141.27z"/>
		<path class="st0" d="M51.69,193.03c37.25,0,74.3,0,111.48,0c0,4.69,0,9.36,0,14.16c-0.5,0.02-1,0.06-1.49,0.06
			c-36.14,0-72.27-0.01-108.41,0.03c-1.34,0-1.62-0.43-1.6-1.66C51.73,201.49,51.69,197.35,51.69,193.03z"/>
		<path class="st0" d="M108.99,226.81c7.69,0.02,13.84,6.19,13.83,13.88c-0.01,7.73-6.26,13.92-14,13.88
			c-7.64-0.05-13.8-6.3-13.76-13.98C95.1,232.91,101.28,226.8,108.99,226.81z"/>
		<path class="st0" d="M78.73,240.68c-0.12,7.68-6.42,13.85-14.02,13.73c-7.79-0.12-13.9-6.47-13.75-14.29
			c0.14-7.58,6.54-13.65,14.24-13.51C72.75,226.76,78.85,233.09,78.73,240.68z"/>
		<path class="st0" d="M265.45,81.89c6.74,3.87,13.35,7.67,20.1,11.55c-2.59,4.52-5.13,8.94-7.76,13.52
			c-6.74-3.87-13.38-7.68-20.11-11.55C260.3,90.85,262.84,86.43,265.45,81.89z"/>
	</g>
</g>
</svg>
