<?xml version="1.0" encoding="utf-8"?>
<!-- Generator: Adobe Illustrator 23.0.4, SVG Export Plug-In . SVG Version: 6.00 Build 0)  -->
<svg version="1.1" id="Layer_1" xmlns="http://www.w3.org/2000/svg" xmlns:xlink="http://www.w3.org/1999/xlink" x="0px" y="0px"
	 viewBox="0 0 4.69 4.68" style="enable-background:new 0 0 4.69 4.68;" xml:space="preserve">
<style type="text/css">
	.st0{fill:#FFFFFF;}
</style>
<g>
	<g>
		<path class="st0" d="M3.8,4.43H0.87c-0.39,0-0.62-0.24-0.62-0.63V0.89c0-0.41,0.23-0.64,0.64-0.64H3.8c0.4,0,0.64,0.24,0.64,0.63
			V3.8C4.44,4.19,4.2,4.43,3.8,4.43z M0.89,0.47c-0.28,0-0.41,0.13-0.41,0.42V3.8c0,0.27,0.13,0.41,0.4,0.41H3.8
			c0.28,0,0.41-0.13,0.41-0.41V0.88c0-0.27-0.13-0.41-0.41-0.41H0.89z M2.35,3.22c0,0-0.01,0-0.01,0c-0.23,0-0.46-0.1-0.63-0.28
			C1.54,2.77,1.46,2.55,1.46,2.33c0.01-0.48,0.41-0.87,0.88-0.87c0.23,0,0.45,0.1,0.62,0.27c0.16,0.17,0.26,0.39,0.25,0.62
			c0,0.24-0.1,0.46-0.27,0.63C2.79,3.13,2.57,3.22,2.35,3.22z M2.35,1.68c-0.35,0-0.65,0.3-0.66,0.65c0,0.16,0.06,0.32,0.18,0.45
			c0.12,0.13,0.29,0.2,0.47,0.21c0.17,0,0.33-0.06,0.46-0.19C2.92,2.68,3,2.52,3,2.34c0-0.17-0.07-0.33-0.19-0.46
			C2.68,1.76,2.52,1.68,2.35,1.68z"/>
	</g>
</g>
</svg>
