<?xml version="1.0" encoding="utf-8"?>
<!-- Generator: Adobe Illustrator 23.0.4, SVG Export Plug-In . SVG Version: 6.00 Build 0)  -->
<svg version="1.1" id="Layer_1" xmlns="http://www.w3.org/2000/svg" xmlns:xlink="http://www.w3.org/1999/xlink" x="0px" y="0px"
	 viewBox="0 0 4.69 4.68" style="enable-background:new 0 0 4.69 4.68;" xml:space="preserve">
<style type="text/css">
	.st0{fill:#FFFFFF;}
</style>
<g>
	<g>
		<path class="st0" d="M1.6,4.07c-0.44,0-0.85-0.12-1.23-0.35L0.4,3.67l0-0.13l0.04,0c0.27,0.01,0.52-0.03,0.74-0.13
			c0.04-0.02,0.09-0.04,0.13-0.06C1.26,3.33,1.22,3.31,1.17,3.29c-0.2-0.1-0.34-0.26-0.42-0.47c-0.01-0.03-0.03-0.08,0-0.12
			C0.77,2.67,0.79,2.66,0.8,2.66C0.59,2.5,0.47,2.28,0.45,1.99c0-0.05,0.01-0.09,0.04-0.11c0.04-0.03,0.08-0.02,0.1-0.01
			c-0.17-0.26-0.19-0.6-0.05-0.88c0.01-0.02,0.04-0.07,0.09-0.08C0.7,0.9,0.74,0.94,0.76,0.96C1.11,1.37,1.55,1.61,2.08,1.7
			C2.1,1.7,2.13,1.71,2.15,1.71c0.01,0,0.01,0,0.02,0C2.15,1.37,2.32,1.04,2.62,0.87C2.95,0.68,3.39,0.73,3.66,1
			C3.8,0.96,3.93,0.91,4.05,0.84l0.02-0.01l0.24-0.22l-0.1,0.31C4.19,1.01,4.15,1.1,4.1,1.17c0.03-0.01,0.06-0.02,0.09-0.03L4.3,1.1
			l0.02,0.11c0.01,0.05-0.02,0.08-0.03,0.1C4.18,1.46,4.06,1.58,3.93,1.67C3.95,2.26,3.76,2.8,3.38,3.26C3.01,3.69,2.55,3.95,2,4.03
			C1.86,4.06,1.73,4.07,1.6,4.07z M0.75,3.71c0.37,0.16,0.78,0.21,1.22,0.14C2.48,3.77,2.9,3.54,3.23,3.15
			c0.36-0.43,0.53-0.93,0.52-1.48c0-0.04,0.01-0.09,0.07-0.14c0.05-0.04,0.1-0.08,0.15-0.13C3.92,1.41,3.87,1.42,3.81,1.42
			L3.45,1.46l0.3-0.2c0.07-0.05,0.13-0.1,0.17-0.15C3.85,1.13,3.78,1.15,3.7,1.17c-0.06,0.01-0.12,0-0.17-0.04
			c-0.22-0.21-0.56-0.26-0.82-0.1c-0.26,0.15-0.4,0.44-0.35,0.73c0.01,0.05,0,0.09-0.03,0.12C2.32,1.89,2.29,1.91,2.22,1.9
			C2.19,1.9,2.16,1.89,2.14,1.89c-0.03,0-0.06-0.01-0.09-0.01C1.51,1.79,1.05,1.55,0.68,1.15C0.6,1.4,0.66,1.68,0.83,1.86
			c0.02,0.02,0.05,0.05,0.09,0.08l0.25,0.22L0.88,2.13C0.79,2.13,0.72,2.11,0.65,2.09c0.04,0.22,0.16,0.38,0.36,0.49
			C1.05,2.6,1.08,2.61,1.13,2.62c0.02,0.01,0.04,0.01,0.06,0.02l0.23,0.08L1.19,2.81C1.13,2.84,1.06,2.85,0.97,2.84
			c0.07,0.13,0.16,0.22,0.29,0.28c0.1,0.05,0.2,0.07,0.3,0.08l0.25,0.01l-0.2,0.16C1.5,3.45,1.39,3.52,1.26,3.57
			C1.1,3.65,0.93,3.69,0.75,3.71z"/>
	</g>
</g>
</svg>
