<?xml version="1.0" encoding="utf-8"?>
<!-- Generator: Adobe Illustrator 23.0.4, SVG Export Plug-In . SVG Version: 6.00 Build 0)  -->
<svg version="1.1" id="Layer_1" xmlns="http://www.w3.org/2000/svg" xmlns:xlink="http://www.w3.org/1999/xlink" x="0px" y="0px"
	 viewBox="0 0 4.7 4.7" style="enable-background:new 0 0 4.7 4.7;" xml:space="preserve">
<style type="text/css">
	.st0{fill:#073B6D;}
</style>
<g>
	<g>
		<path class="st0" d="M2.3,4.5c-0.2,0-0.4,0-0.6-0.1l-0.1,0V2.3H1.2V1.5h0.5V1.3c0-0.3,0-0.5,0.1-0.6c0.1-0.2,0.2-0.3,0.3-0.4
			c0.2-0.1,0.4-0.1,0.6-0.1c0.3,0,0.5,0,0.7,0.1l0.1,0L3.4,1.1L3.3,1C3.2,1,3,1,2.9,1C2.8,1,2.8,1,2.7,1.1l0,0c0,0,0,0.1,0,0.3v0.1
			h0.6v0.8H2.7v2.1l-0.1,0C2.5,4.5,2.4,4.5,2.3,4.5z"/>
	</g>
</g>
</svg>
