<?xml version="1.0" encoding="utf-8"?>
<!-- Generator: Adobe Illustrator 23.0.4, SVG Export Plug-In . SVG Version: 6.00 Build 0)  -->
<svg version="1.1" id="Layer_1" xmlns="http://www.w3.org/2000/svg" xmlns:xlink="http://www.w3.org/1999/xlink" x="0px" y="0px"
	 viewBox="0 0 300 300" style="enable-background:new 0 0 300 300;" xml:space="preserve">
<style type="text/css">
	.st0{fill:#737373;}
</style>
<g id="Q5ETFV.tif">
	<g>
		<path class="st0" d="M139.21,184.89c39.87,18.7,59.03,50.26,59.15,94.48c-5.53,0-10.55,0-16.45,0
			c1.02-27.07-7.86-50.18-29.3-67.53c-15.93-12.89-34.31-17.62-54.74-16.74c-38.17,1.65-63.86,31.57-71.36,84.44
			c-4.68,0-9.41,0-15.04,0c-0.82-44.71,19.17-75.86,58.9-94.92c-33.49-27.98-29.01-68.25-7.61-90.1
			c22.63-23.1,60.52-23.12,84.01-0.95C167.24,112.88,174.82,155.52,139.21,184.89z M104.97,93.03c-23.58-0.04-43.2,19.2-43.24,42.38
			c-0.04,23.63,19.67,43.08,43.67,43.09c22.62,0.01,42.13-19.52,42.54-42.58C148.35,113.04,128.34,93.07,104.97,93.03z"/>
		<path class="st0" d="M96.27,25.26c0,9.87,0,19.34,0,29.44c-5.4,1.24-10.54,2.42-16.72,3.83c0-8.86,0-17.11,0-25.35
			c0-7.99,0-15.98,0-24.33c68.2,0,135.45,0,203.11,0c0,44.69,0,88.95,0,134.64c-7.2,0-14.58,0.51-21.85-0.14
			c-7.84-0.7-13.43,1.8-18.84,7.59c-13.53,14.48-27.74,28.34-43.38,44.17c0-18.45,0-34.6,0-51.19c-5.86-0.29-10.67-0.52-16.16-0.79
			c0-4.89,0-9.58,0-14.86c10.57,0,21.08,0,32.41,0c0,7.88,0,15.82,0,26.43c6.68-6.48,12.26-10.79,16.45-16.19
			c6.81-8.77,15.05-12.57,26.01-10.87c2.77,0.43,5.67,0.06,9.21,0.06c0.27-3.09,0.67-5.59,0.68-8.08
			c0.04-29.09-0.02-58.19,0.08-87.28c0.02-4.85-0.29-8.17-6.72-8.14c-53.58,0.21-107.16,0.16-160.74,0.21
			C98.98,24.42,98.16,24.8,96.27,25.26z"/>
	</g>
</g>
</svg>
