<?xml version="1.0" encoding="utf-8"?>
<!-- Generator: Adobe Illustrator 23.0.4, SVG Export Plug-In . SVG Version: 6.00 Build 0)  -->
<svg version="1.1" id="Layer_1" xmlns="http://www.w3.org/2000/svg" xmlns:xlink="http://www.w3.org/1999/xlink" x="0px" y="0px"
	 viewBox="0 0 300 300" style="enable-background:new 0 0 300 300;" xml:space="preserve">
<style type="text/css">
	.st0{fill:#737373;}
</style>
<g>
	<path class="st0" d="M129.84,292.96c-1.04-0.74-2.23-1.34-3.1-2.25c-2.05-2.1-2.72-4.72-1.67-7.45c1.07-2.77,3.19-4.75,6.28-4.77
		c11.98-0.11,23.96-0.1,35.94,0c3.01,0.02,5.86,2.68,6.56,5.58c0.67,2.78-0.54,5.79-3.07,7.5c-0.76,0.52-1.59,0.93-2.39,1.39
		C155.53,292.96,142.68,292.96,129.84,292.96z"/>
	<path class="st0" d="M274.48,141.06c-1.87,4.39-5.15,6.04-9.92,5.87c-7.81-0.27-15.63-0.03-23.44-0.15
		c-3.37-0.05-6.19-2.54-6.84-5.56c-0.71-3.29,0.82-6.66,4.01-8.08c1.38-0.62,3.05-0.8,4.6-0.82c7.26-0.08,14.52,0.13,21.77-0.09
		c4.77-0.15,8.05,1.59,9.82,6.04C274.48,139.19,274.48,140.13,274.48,141.06z"/>
	<path class="st0" d="M182.39,234.31c5.83,2.81,7.63,7.69,4.15,11.65c-1.27,1.44-3.57,2.77-5.42,2.79
		c-21.21,0.19-42.42,0.15-63.64,0.1c-3.39-0.01-6.26-2.54-6.99-5.77c-0.67-2.97,1.02-6.34,3.97-7.89c0.48-0.25,0.99-0.44,1.7-0.75
		c-2.79-11.88-4.6-24.03-11.8-34.27c-3.57-5.08-7.58-9.86-11.55-14.65c-10.08-12.19-18.29-25.34-21.13-41.19
		c-2.61-14.57-0.14-28.59,5.87-41.89c9.39-20.78,24.97-35.22,46.6-42.54c22.04-7.45,43.51-5.38,63.79,6.04
		c17.66,9.95,29.73,24.82,36.05,44.07c6.37,19.39,5.12,38.25-4.98,56.28c-4.43,7.91-9.52,15.31-15.7,21.95
		c-9.74,10.46-16.12,22.63-18.72,36.74C184.03,228.07,183.15,231.1,182.39,234.31z M131.25,234.34c1.14,0,2.15,0,3.16,0
		c8.65,0,17.31,0,25.96,0c7,0,7.17,0.04,8.58-6.77c3.03-14.6,7.3-28.67,16.6-40.66c3.93-5.06,8.36-9.74,12.28-14.81
		c6.89-8.9,12.58-18.51,14.62-29.74c2.38-13.1-0.41-25.47-6.22-37.29c-12.48-25.39-43.03-39.82-70.57-33.36
		c-18.69,4.38-33.01,14.8-42.25,31.56c-8.26,15-11.15,30.92-4.93,47.52c3.89,10.4,10.03,19.46,17.52,27.63
		c10.42,11.38,18.04,24.25,21.23,39.54C128.35,223.31,129.83,228.6,131.25,234.34z"/>
	<path class="st0" d="M149.21,271.2c-9.68,0-19.36,0.01-29.04-0.01c-5.07-0.01-8.35-2.94-8.31-7.36c0.04-4.26,3.33-7.17,8.22-7.17
		c19.45-0.01,38.9-0.01,58.35,0c5,0,8.42,3.04,8.36,7.36c-0.05,4.21-3.41,7.15-8.27,7.16C168.75,271.21,158.98,271.2,149.21,271.2z"
		/>
	<path class="st0" d="M142.06,28.11c0-4.46-0.04-8.91,0.01-13.37c0.05-4.39,3.11-7.65,7.12-7.7c4.07-0.06,7.36,3.3,7.39,7.78
		c0.06,9,0.07,18.01,0,27.01c-0.03,4.48-3.33,7.75-7.46,7.67c-4.03-0.08-7-3.3-7.05-7.74C142.03,37.21,142.06,32.66,142.06,28.11z"
		/>
	<path class="st0" d="M251.79,56.63c-0.95,1.73-1.59,3.77-2.91,5.15c-5.91,6.17-11.98,12.18-18.07,18.17
		c-3.24,3.19-7.84,3.22-10.7,0.26c-2.79-2.89-2.69-7.35,0.41-10.51c6.05-6.16,12.16-12.26,18.31-18.33
		c2.37-2.34,5.65-2.83,8.46-1.52C249.73,51.01,251.32,53.57,251.79,56.63z"/>
	<path class="st0" d="M231.07,230.48c-1.69-0.85-3.71-1.36-5.01-2.61c-6.29-6.05-12.43-12.25-18.53-18.49
		c-3.06-3.14-3.03-7.66-0.16-10.49c2.86-2.82,7.37-2.76,10.5,0.32c6.15,6.06,12.23,12.19,18.31,18.32c2.42,2.44,2.85,5.38,1.55,8.45
		C236.57,228.73,234.24,229.95,231.07,230.48z"/>
	<path class="st0" d="M78.99,75c-0.45,3.04-1.65,5.28-4.19,6.54c-2.7,1.34-5.63,1.38-7.82-0.74c-6.81-6.58-13.51-13.26-20.04-20.11
		c-2.5-2.62-1.88-7.16,0.71-9.61c2.58-2.44,7.01-2.73,9.64-0.19c6.6,6.39,13.09,12.91,19.46,19.52C77.88,71.57,78.27,73.45,78.99,75
		z"/>
	<path class="st0" d="M65.8,230.45c-3.16-0.46-5.45-1.67-6.78-4.35c-1.39-2.78-0.86-6.1,1.48-8.51c4.61-4.74,9.31-9.38,13.98-14.06
		c1.58-1.58,3.1-3.22,4.77-4.71c3.02-2.68,7.43-2.61,10.13,0.06c2.76,2.73,2.87,7.36-0.02,10.32c-6.17,6.33-12.42,12.59-18.78,18.73
		C69.33,229.14,67.41,229.63,65.8,230.45z"/>
	<path class="st0" d="M45.75,146.85c-4.09,0-8.19,0.06-12.28-0.01c-4.64-0.08-7.95-3.16-7.95-7.23c0-4.04,3.34-7.24,7.94-7.29
		c8.19-0.09,16.37-0.1,24.56,0.01c4.64,0.06,7.78,3.23,7.72,7.41c-0.06,4.06-3.19,7-7.72,7.1
		C53.93,146.92,49.84,146.85,45.75,146.85z"/>
	<path class="st0" d="M156.61,109.93c0,8.87-0.05,17.33,0.08,25.78c0.01,0.74,1.08,1.82,1.89,2.12c9.89,3.69,16.19,10.54,18.76,20.8
		c3.32,13.26-4.42,28.15-17.3,32.74c-2.75,0.98-3.67,2.21-3.52,5.08c0.2,3.78-2.37,6.84-5.72,7.59c-3.27,0.73-6.84-1.05-8.12-4.39
		c-0.57-1.5-0.59-3.27-0.58-4.92c0.01-1.57-0.32-2.49-1.99-3.08c-8.56-3.03-15.28-8.71-21.32-15.26c-2.98-3.23-2.85-7.77,0.06-10.51
		c2.93-2.75,7.42-2.56,10.49,0.58c3.7,3.78,7.5,7.41,12.72,10.1c0-4.61,0-8.84,0-13.07c0-3.72-0.08-7.44,0.03-11.16
		c0.05-1.71-0.38-2.61-2.13-3.28c-11.07-4.25-17.34-12.33-18.73-24.13c-1.45-12.31,6.26-24.94,17.93-29.12
		c2.35-0.84,3.05-1.95,2.96-4.39c-0.18-5.05,2.92-8.45,7.22-8.42c4.25,0.04,7.36,3.51,7.19,8.53c-0.08,2.42,0.76,3.24,3.02,3.92
		c7.81,2.36,14.33,6.97,20.13,12.6c2.95,2.86,2.99,7.5,0.33,10.31c-2.64,2.8-7.22,2.96-10.33,0.17
		C165.88,115.12,161.87,112.03,156.61,109.93z M156.75,176.8c4.61-2.93,6.73-6.92,6.69-11.97c-0.04-4.93-2.15-8.81-6.69-11.68
		C156.75,161.17,156.75,168.81,156.75,176.8z M142.06,133.84c0-4.13,0-7.81,0-11.49c0-3.74,0-7.49,0-11.46
		C133.64,115.97,133.6,128.17,142.06,133.84z"/>
</g>
</svg>
