<?xml version="1.0" encoding="utf-8"?>
<!-- Generator: Adobe Illustrator 23.0.4, SVG Export Plug-In . SVG Version: 6.00 Build 0)  -->
<svg version="1.1" id="Layer_1" xmlns="http://www.w3.org/2000/svg" xmlns:xlink="http://www.w3.org/1999/xlink" x="0px" y="0px"
	 viewBox="0 0 4.7 4.7" style="enable-background:new 0 0 4.7 4.7;" xml:space="preserve">
<style type="text/css">
	.st0{fill:#073B6D;}
</style>
<g>
	<circle class="st0" cx="2.3" cy="2.3" r="0.7"/>
	<path class="st0" d="M3.8,0.3H0.9c-0.4,0-0.6,0.2-0.6,0.6v2.9c0,0.4,0.2,0.6,0.6,0.6h2.9c0.4,0,0.6-0.2,0.6-0.6V0.9
		C4.4,0.5,4.2,0.3,3.8,0.3z M2.3,3.2c-0.5,0-0.9-0.4-0.9-0.9s0.4-0.9,0.9-0.9c0.5,0,0.9,0.4,0.9,0.9S2.8,3.2,2.3,3.2z M3.6,1.1
		C3.5,1.1,3.4,1,3.4,0.9s0.1-0.2,0.2-0.2s0.2,0.1,0.2,0.2S3.7,1.1,3.6,1.1z"/>
</g>
</svg>
