<?xml version="1.0" encoding="utf-8"?>
<!-- Generator: Adobe Illustrator 23.0.4, SVG Export Plug-In . SVG Version: 6.00 Build 0)  -->
<svg version="1.1" id="Layer_1" xmlns="http://www.w3.org/2000/svg" xmlns:xlink="http://www.w3.org/1999/xlink" x="0px" y="0px"
	 viewBox="0 0 300 300" style="enable-background:new 0 0 300 300;" xml:space="preserve">
<style type="text/css">
	.st0{fill:#737373;}
</style>
<g id="ACLWpN.tif">
	<g>
		<path class="st0" d="M189.73,242.3c2.74,4.99,5.31,9.67,7.89,14.38c-47.64,23.51-112.49,12.33-149.64-37.27
			C11.51,170.73,16.35,103.25,59.2,59.77c42.05-42.66,110.92-48.08,159.2-12.23c52.08,38.67,60.48,104.02,38.62,149.08
			c-4.59-2.51-9.17-5.01-14.34-7.83c13.07-31.76,12.1-63.02-4.29-93.28c-11.34-20.95-28.29-36.01-49.96-45.94
			C146.85,30.53,97.5,41.8,65.64,77.79c-29.97,33.85-33.69,84.94-8.79,124.65c13.99,22.3,33.94,37.22,59.04,44.82
			C140.77,254.8,165.34,252.79,189.73,242.3z"/>
		<path class="st0" d="M162.28,192.17c2.64,4.87,5.11,9.43,7.58,14c-21.66,11.18-56.38,4.67-75.28-19.58
			c-19.58-25.12-18.43-61.39,3.19-84.49c22.53-24.06,58.34-28.23,85.02-9.96c27.89,19.1,34.03,54.06,23.86,76.77
			c-2.46-1.28-4.91-2.53-7.33-3.84c-2.29-1.23-4.55-2.52-6.75-3.75c4.9-27.86-3.7-47.86-25.07-58.59
			c-19.27-9.68-42.25-5.46-57.13,10.48c-14.5,15.53-17.21,38.7-6.32,57.3C113.45,186.57,133.05,200.1,162.28,192.17z"/>
		<path class="st0" d="M156.6,154.88c45.78,25.13,91.56,50.26,137.33,75.39c-0.1,0.38-0.2,0.76-0.29,1.14c-20.1,0-40.19,0-60.89,0
			c0,20.89,0,41.22,0,61.54c-0.53,0.18-1.06,0.36-1.59,0.54c-25.19-45.92-50.38-91.83-75.57-137.75
			C155.93,155.46,156.26,155.17,156.6,154.88z"/>
	</g>
</g>
</svg>
