<?xml version="1.0" encoding="utf-8"?>
<!-- Generator: Adobe Illustrator 23.0.4, SVG Export Plug-In . SVG Version: 6.00 Build 0)  -->
<svg version="1.1" id="Layer_1" xmlns="http://www.w3.org/2000/svg" xmlns:xlink="http://www.w3.org/1999/xlink" x="0px" y="0px"
	 viewBox="0 0 4.69 4.68" style="enable-background:new 0 0 4.69 4.68;" xml:space="preserve">
<style type="text/css">
	.st0{fill:#FFFFFF;}
</style>
<g>
	<g>
		<path class="st0" d="M0.31,4.5c-0.03,0-0.05-0.01-0.08-0.03C0.18,4.42,0.2,4.37,0.21,4.32C0.28,4.04,0.37,3.7,0.48,3.37
			c0-0.01,0-0.01-0.01-0.01C0.14,2.74,0.11,2.04,0.41,1.42c0.29-0.62,0.85-1.06,1.53-1.2c0.14-0.03,0.28-0.04,0.41-0.04
			c1.02,0.01,1.86,0.68,2.1,1.65l0,0c0.13,0.56,0.03,1.16-0.29,1.65C3.83,3.97,3.33,4.32,2.77,4.43C2.28,4.52,1.8,4.45,1.36,4.23
			C1.03,4.31,0.7,4.4,0.37,4.49C0.35,4.49,0.33,4.5,0.31,4.5z M1.37,4.02c0.02,0,0.05,0.01,0.09,0.02c0.4,0.2,0.83,0.26,1.28,0.18
			c0.51-0.1,0.96-0.41,1.25-0.85c0.29-0.44,0.38-0.99,0.26-1.49v0C4.03,1,3.26,0.4,2.34,0.38C2.23,0.39,2.1,0.4,1.97,0.42
			C1.36,0.55,0.85,0.94,0.59,1.51C0.33,2.07,0.35,2.7,0.64,3.25C0.68,3.3,0.68,3.36,0.67,3.41C0.58,3.71,0.5,4,0.44,4.26
			c0.3-0.08,0.59-0.15,0.87-0.23C1.32,4.03,1.34,4.02,1.37,4.02z"/>
	</g>
	<g>
		<path class="st0" d="M2.94,3.4c-0.02,0-0.04,0-0.06,0C2.8,3.4,2.73,3.4,2.64,3.37C2.18,3.23,1.8,2.96,1.48,2.52
			C1.37,2.38,1.26,2.2,1.22,1.99C1.17,1.75,1.25,1.52,1.44,1.35C1.52,1.27,1.73,1.24,1.83,1.3c0.05,0.04,0.07,0.06,0.08,0.09
			C1.96,1.5,2,1.59,2.04,1.69L2.1,1.82C2.12,1.89,2.11,1.94,2.09,2C2.05,2.06,2.01,2.11,1.97,2.16L1.95,2.18
			c0.16,0.27,0.37,0.45,0.64,0.55c0.04-0.05,0.09-0.12,0.14-0.18c0.06-0.08,0.15-0.1,0.24-0.06c0.07,0.03,0.14,0.06,0.21,0.1
			l0.08,0.04c0.03,0.02,0.05,0.02,0.07,0.03C3.48,2.74,3.5,2.79,3.48,2.93C3.47,3.08,3.39,3.29,3.04,3.39C3,3.4,2.97,3.4,2.94,3.4z
			 M2.88,3.19l0.01,0c0.03,0.01,0.06,0,0.1,0c0.27-0.08,0.28-0.23,0.28-0.28c0-0.02,0-0.03,0-0.05C3.27,2.86,3.25,2.85,3.24,2.85
			C3.22,2.84,3.2,2.83,3.17,2.81L3.09,2.77C3.02,2.74,2.96,2.71,2.89,2.68C2.84,2.74,2.79,2.81,2.74,2.87
			C2.69,2.94,2.6,2.96,2.52,2.92C2.2,2.8,1.95,2.59,1.77,2.28C1.72,2.2,1.73,2.1,1.8,2.04l0.01-0.01C1.85,1.98,1.88,1.95,1.9,1.9
			L1.85,1.77C1.81,1.67,1.77,1.58,1.73,1.48c0,0-0.01,0-0.02-0.01c0-0.01-0.11,0.01-0.14,0.03C1.44,1.63,1.39,1.78,1.42,1.96
			C1.45,2.13,1.55,2.27,1.64,2.4C1.94,2.8,2.28,3.05,2.7,3.17C2.77,3.19,2.82,3.2,2.87,3.2L2.88,3.19z"/>
	</g>
</g>
</svg>
