<?xml version="1.0" encoding="utf-8"?>
<!-- Generator: Adobe Illustrator 23.0.4, SVG Export Plug-In . SVG Version: 6.00 Build 0)  -->
<svg version="1.1" id="Layer_1" xmlns="http://www.w3.org/2000/svg" xmlns:xlink="http://www.w3.org/1999/xlink" x="0px" y="0px"
	 viewBox="0 0 300 300" style="enable-background:new 0 0 300 300;" xml:space="preserve">
<style type="text/css">
	.st0{fill:#737373;}
</style>
<g>
	<path class="st0" d="M136.47,86.08c6.07,0,11.79,0,17.89,0c0,2.54,0,5,0,7.46c0,1.96,0.11,3.94-0.03,5.89
		c-0.13,1.75,0.54,2.21,2.24,2.49c5.72,0.94,11.41,2.07,17.07,3.31c1.81,0.4,3.54,1.29,5.22,2.13c0.47,0.24,1,1.2,0.87,1.67
		c-1.61,6.26-3.33,12.5-5.06,18.87c-2.44-1-4.64-1.97-6.88-2.8c-7.93-2.95-16.08-3.97-24.48-2.72c-0.52,0.08-1.04,0.19-1.54,0.34
		c-4.1,1.27-7.56,3.31-8.32,7.97c-0.78,4.76,1.95,7.87,5.71,9.88c4.37,2.34,8.99,4.25,13.58,6.14c6.63,2.73,13.23,5.41,19.27,9.4
		c16.01,10.58,16.93,34.78,2.89,47.24c-5.56,4.93-11.9,8.2-19.11,9.76c-2.29,0.5-3.2,1.37-3.08,3.89
		c0.25,5.11,0.07,10.24,0.07,15.52c-6.01,0-11.79,0-17.88,0c0-4.21,0-8.42,0-12.62c0-4.25,0.01-4.33-4.09-4.81
		c-8.44-0.99-16.63-2.88-24.42-6.39c-1.57-0.71-1.9-1.46-1.45-3.09c1.7-6.17,3.26-12.38,4.9-18.72c3.41,1.37,6.64,2.75,9.94,3.97
		c7.45,2.76,15.16,4.19,23.1,3.39c2.72-0.27,5.52-1.03,8.01-2.17c6.68-3.06,8.03-11.14,2.54-16.07c-2.58-2.31-5.82-4.04-9.01-5.48
		c-5.7-2.58-11.65-4.59-17.37-7.12c-5.28-2.33-9.92-5.63-13.98-9.84c-9.2-9.53-8.91-25.1-1.96-35.2
		c5.27-7.66,12.84-11.88,21.61-14.27c4.39-1.19,3.7-0.3,3.74-4.88C136.5,94.95,136.47,90.66,136.47,86.08z"/>
	<path class="st0" d="M43.41,190.64c-7.41-6.17-14.81-12.33-22.6-18.81c-0.75,3.82-1.43,7.28-2.11,10.73
		c-0.18,0.01-0.37,0.02-0.55,0.03c-0.47-3.46-1.06-6.91-1.38-10.39c-2.1-22.81,1.42-44.73,10.86-65.6
		c6.37-14.09,15.13-26.6,26-37.63c11.9-12.08,25.6-21.61,41.07-28.49c6.04-2.69,12.42-4.65,18.72-6.72c2.02-0.67,2.91-1.41,2.82-3.7
		c-0.2-5.2-0.06-10.42-0.06-15.63c0-0.73,0-1.46,0-2.61c19.59,9.92,38.79,19.65,58.42,29.6c-19.62,9.94-38.77,19.64-58.38,29.58
		c0-4.54,0-8.69,0-13.27c-28.3,9.05-49.75,25.89-63.82,51.55C38.29,135.02,36.2,162.27,43.41,190.64z"/>
	<path class="st0" d="M51.23,247.61c-5.85,3.55-11.64,7.05-17.89,10.84c-1.3-21.91-2.58-43.38-3.89-65.44
		c18.36,12.06,36.23,23.81,54.51,35.81c-3.95,2.14-7.62,4.12-11.64,6.3c21.65,19.89,46.74,30.4,76.09,29.56
		c29.27-0.84,53.83-12.57,74.51-33.37c-1.23,9.49-2.47,18.98-3.75,28.8c2.87-0.94,5.41-1.76,7.95-2.59
		c-25.94,21.87-55.83,32.34-89.68,30.34C103.55,285.86,74.94,271.99,51.23,247.61z"/>
	<path class="st0" d="M168.66,56.21c9.52-3.98,18.52-7.74,27.92-11.67c-2.79-2.11-5.28-4-7.76-5.88c0.06-0.12,0.12-0.24,0.19-0.37
		c2.47,0.99,4.97,1.9,7.39,2.99c18.24,8.26,33.94,19.94,46.84,35.24c14.02,16.63,23.47,35.56,27.83,56.95
		c3.78,18.54,3.66,37.04-0.53,55.5c-0.18,0.81-0.41,1.61-0.62,2.41c-1.51,5.53-1.51,5.52,3.45,8.52c4.19,2.54,8.36,5.09,12.91,7.86
		c-18.21,11.97-36.13,23.75-54.54,35.85c1.31-21.99,2.6-43.53,3.9-65.43c3.99,2.1,7.7,4.05,11.59,6.1
		c6.71-28.62,2.75-55.4-12.62-80.22C219.34,79.39,197.28,63.72,168.66,56.21z"/>
</g>
</svg>
