<?xml version="1.0" encoding="utf-8"?>
<!-- Generator: Adobe Illustrator 23.0.4, SVG Export Plug-In . SVG Version: 6.00 Build 0)  -->
<svg version="1.1" id="Layer_1" xmlns="http://www.w3.org/2000/svg" xmlns:xlink="http://www.w3.org/1999/xlink" x="0px" y="0px"
	 viewBox="0 0 4.69 4.68" style="enable-background:new 0 0 4.69 4.68;" xml:space="preserve">
<style type="text/css">
	.st0{fill:#FFFFFF;}
</style>
<g>
	<g>
		<path class="st0" d="M2.34,4.48c-0.22,0-0.43-0.02-0.63-0.07L1.65,4.4v-2.1H1.18V1.46h0.46V1.32c0-0.28,0.03-0.49,0.1-0.63
			C1.8,0.54,1.91,0.43,2.09,0.33c0.16-0.09,0.36-0.13,0.62-0.13C3,0.19,3.23,0.23,3.44,0.3L3.5,0.32L3.36,1.08L3.27,1.05
			C3.16,1.02,3.03,1,2.91,1c-0.1,0-0.16,0.03-0.19,0.06l0,0C2.68,1.1,2.67,1.19,2.67,1.33v0.13h0.62v0.84H2.67v2.15L2.6,4.47
			C2.51,4.48,2.42,4.48,2.34,4.48z M1.82,4.27C2.03,4.31,2.26,4.33,2.5,4.31V2.13h0.62v-0.5H2.5v-0.3c0-0.19,0.03-0.31,0.1-0.38
			c0.11-0.13,0.39-0.13,0.63-0.08l0.08-0.43c-0.17-0.05-0.36-0.07-0.6-0.07c-0.23,0-0.4,0.04-0.54,0.11
			C2.03,0.56,1.95,0.64,1.9,0.75C1.85,0.87,1.82,1.07,1.82,1.32v0.32H1.36v0.5h0.46V4.27z"/>
	</g>
</g>
</svg>
