<?xml version="1.0" encoding="utf-8"?>
<!-- Generator: Adobe Illustrator 23.0.4, SVG Export Plug-In . SVG Version: 6.00 Build 0)  -->
<svg version="1.1" id="Layer_1" xmlns="http://www.w3.org/2000/svg" xmlns:xlink="http://www.w3.org/1999/xlink" x="0px" y="0px"
	 viewBox="0 0 202.3 177" style="enable-background:new 0 0 202.3 177;" xml:space="preserve">
<style type="text/css">
	.st0{fill:#0FAEF3;}
</style>
<g>
	<g>
		<polygon class="st0" points="86,77.8 100,58.4 114.1,77.8 122.5,77.8 100,46.7 77.5,77.8 		"/>
		<polygon class="st0" points="129.5,87.4 121,87.4 136,108.1 64,108.1 79,87.4 70.5,87.4 50.6,115 149.5,115 		"/>
	</g>
	<g>
		<path class="st0" d="M149.5,86.2H50.6L100,17.9L149.5,86.2z M64,79.3h72l-36-49.7L64,79.3z"/>
	</g>
	<g>
		<path class="st0" d="M142.4,101.6l-9.5-13.3l14,0.1L142.4,101.6z M138,90.9l3.5,4.9l1.6-4.9L138,90.9z"/>
	</g>
	<g>
		<path class="st0" d="M54.6,102.1l-3.9-13.4l14,0.5L54.6,102.1z M54.3,91.5l1.4,4.9l3.7-4.8L54.3,91.5z"/>
	</g>
</g>
<g>
	<path class="st0" d="M25.6,154.6l-0.7,1.7H23l-9.8-23.3h3l8.7,20.1L25.6,154.6z M25.4,151.8l7.9-18.8h1.4l-8.5,20.4L25.4,151.8z"/>
	<path class="st0" d="M40.7,136l-9.1,20.2h-1.4l10.5-23.3h1.9L53,156.3h-3L40.7,136z"/>
	<path class="st0" d="M73.4,156.3H56.1v-23.3h2.8v21.9h14.5V156.3z"/>
	<path class="st0" d="M79.3,145.3v11h-2.8v-12.4h18.2v-11h2.8v12.4H79.3z M76.5,142.3v-9.4h2.8v9.4
		C79.3,142.3,76.5,142.3,76.5,142.3z M97.5,146.9v9.3h-2.8v-9.3H97.5z"/>
	<path class="st0" d="M111,136l-9.1,20.2h-1.4l10.5-23.3h1.9l10.5,23.3h-3L111,136z"/>
	<path class="st0" d="M143.7,156.3h-17.3v-23.3h2.8v21.9h14.5V156.3z"/>
	<path class="st0" d="M164.1,156.3h-17.3v-23.3h2.8v21.9h14.5V156.3z"/>
	<path class="st0" d="M177.7,136l-9.1,20.2h-1.4l10.5-23.3h1.9l10.5,23.3h-3L177.7,136z"/>
</g>
</svg>
