<?xml version="1.0" encoding="utf-8"?>
<!-- Generator: Adobe Illustrator 23.0.4, SVG Export Plug-In . SVG Version: 6.00 Build 0)  -->
<svg version="1.1" id="Layer_1" xmlns="http://www.w3.org/2000/svg" xmlns:xlink="http://www.w3.org/1999/xlink" x="0px" y="0px"
	 viewBox="0 0 474.82 104.67" style="enable-background:new 0 0 474.82 104.67;" xml:space="preserve">
<style type="text/css">
	.st0{fill:#FFFFFF;}
</style>
<g>
	<g>
		<polygon class="st0" points="43.39,60.63 54,45.98 64.61,60.63 71.02,60.63 54,37.13 36.98,60.63 		"/>
		<polygon class="st0" points="76.26,67.87 69.85,67.87 81.17,83.49 26.83,83.49 38.15,67.87 31.74,67.87 16.67,88.68 91.34,88.68 
					"/>
	</g>
	<g>
		<path class="st0" d="M91.34,66.91H16.67L54,15.36L91.34,66.91z M26.83,61.72h54.34L54,24.2L26.83,61.72z"/>
	</g>
	<g>
		<path class="st0" d="M86.01,78.54l-7.2-10.06l10.54,0.06L86.01,78.54z M82.7,70.5l2.65,3.7l1.23-3.68L82.7,70.5z"/>
	</g>
	<g>
		<path class="st0" d="M19.72,78.95l-2.94-10.13l10.54,0.37L19.72,78.95z M19.47,70.91l1.08,3.73l2.8-3.59L19.47,70.91z"/>
	</g>
</g>
<g>
	<path class="st0" d="M110.75,77.95l-1.48,3.56h-4L84.6,32.26h6.25l18.29,42.48L110.75,77.95z M110.27,72.04l16.68-39.78h2.95
		l-18.02,43L110.27,72.04z"/>
	<path class="st0" d="M142.5,38.77l-19.2,42.74h-2.95l22.15-49.25h4l22.11,49.25h-6.25L142.5,38.77z"/>
	<path class="st0" d="M211.56,81.51h-36.44V32.26h5.91v46.3h30.53V81.51z"/>
	<path class="st0" d="M223.98,58.36v23.15h-5.91v-26.1h38.4V32.26h5.91v26.1H223.98z M218.07,52.02V32.26h5.91v19.76
		C223.98,52.02,218.07,52.02,218.07,52.02z M262.37,61.79v19.72h-5.91V61.79H262.37z"/>
	<path class="st0" d="M291.04,38.77l-19.2,42.74h-2.95l22.15-49.25h4l22.11,49.25h-6.25L291.04,38.77z"/>
	<path class="st0" d="M360.1,81.51h-36.44V32.26h5.91v46.3h30.53V81.51z"/>
	<path class="st0" d="M403.05,81.51h-36.44V32.26h5.91v46.3h30.53V81.51z"/>
	<path class="st0" d="M431.72,38.77l-19.2,42.74h-2.95l22.15-49.25h4l22.11,49.25h-6.25L431.72,38.77z"/>
</g>
</svg>
